# xmcd
#
# Track frame offsets: 
#        150
#        27067
#        49864
#        76377
#        94737
#        124587
#        158260
#        188450
#        209775
#        240100
#
# Disc length: 3540 seconds
#
# Revision: 1
# Processed by: cddbd v1.5.1PL0 Copyright (c) Steve Scherf et al.
# Submitted via: ExactAudioCopy v0.95a5
#
DISCID=6c0dd20a
DTITLE=Manhattan Trinity - Misty
DYEAR=2002
DGENRE=Jazz
TTITLE0=All Of Me
TTITLE1=Misty
TTITLE2=Li'l Darlin'
TTITLE3=You Are My Sunshine
TTITLE4=The Happy Saint
TTITLE5=Shiny Stockings
TTITLE6=Tenderly
TTITLE7=Through The Fire
TTITLE8=The Very Thought Of You
TTITLE9=Take The A Train
EXTD=
EXTT0=
EXTT1=
EXTT2=
EXTT3=
EXTT4=
EXTT5=
EXTT6=
EXTT7=
EXTT8=
EXTT9=
PLAYORDER=
